<?xml version="1.0" standalone="no"?>
<!DOCTYPE svg PUBLIC "-//W3C//DTD SVG 20010904//EN"
 "http://www.w3.org/TR/2001/REC-SVG-20010904/DTD/svg10.dtd">
<svg version="1.0" xmlns="http://www.w3.org/2000/svg"
 width="480.000000pt" height="480.000000pt" viewBox="0 0 480.000000 480.000000"
 preserveAspectRatio="xMidYMid meet">

<g transform="translate(0.000000,480.000000) scale(0.100000,-0.100000)"
fill="#000000" stroke="none">
<path d="M2215 3926 c-214 -42 -463 -178 -646 -354 -125 -119 -207 -249 -284
-452 -41 -106 -110 -377 -125 -488 -26 -193 -12 -987 21 -1231 27 -198 87
-345 155 -379 69 -36 353 -68 369 -42 5 7 11 52 14 99 l7 86 18 -60 c24 -80
62 -144 92 -156 14 -5 68 -9 119 -9 l94 0 7 36 7 36 17 -40 c10 -22 22 -42 26
-45 15 -8 481 -50 496 -45 8 3 22 41 33 84 l19 79 7 -68 c9 -108 7 -107 246
-114 110 -3 208 -3 218 0 9 4 68 9 130 11 120 5 182 23 217 62 62 70 103 287
128 674 6 96 17 261 25 365 8 105 19 321 25 480 10 299 6 387 -26 545 -78 383
-331 711 -654 851 -153 66 -244 75 -327 32 -49 -24 -54 -25 -71 -10 -61 55
-222 79 -357 53z m372 -677 c15 -5 30 -13 33 -17 3 -4 50 -37 106 -73 97 -65
191 -151 253 -234 17 -22 31 -45 31 -51 0 -7 -38 -14 -102 -18 -139 -10 -179
-18 -192 -38 -8 -14 -7 -21 5 -33 14 -14 27 -15 100 -6 162 21 259 8 276 -36
12 -30 64 -105 115 -164 65 -77 86 -128 88 -214 3 -191 -13 -321 -61 -495 -21
-75 -69 -200 -79 -210 -9 -8 -70 -100 -70 -106 0 -12 -178 -188 -215 -213 -22
-15 -76 -52 -120 -82 -106 -73 -169 -89 -352 -89 -153 0 -240 17 -327 64 -49
26 -200 151 -263 218 -48 50 -193 259 -193 277 0 9 -11 36 -25 60 -14 23 -25
54 -25 68 0 25 -21 146 -46 264 -7 36 -11 83 -9 105 4 31 3 34 -4 14 -8 -22
-9 -20 -10 18 -1 30 -5 42 -13 39 -14 -4 -14 -87 -2 -215 5 -52 3 -67 -12 -83
-19 -21 -46 -26 -43 -6 1 6 1 22 0 35 -1 19 -5 22 -21 17 -25 -8 -50 10 -50
36 0 11 9 36 20 56 11 21 21 49 21 63 1 23 2 23 8 -5 l7 -30 16 35 c13 32 13
35 -1 40 -16 5 -17 13 -13 66 1 11 11 30 22 42 11 12 20 27 20 33 0 7 9 22 19
33 29 31 60 77 157 233 64 103 94 143 108 143 11 0 40 10 65 22 55 27 159 28
294 4 99 -18 131 -11 125 27 -4 26 -51 40 -191 57 -87 10 -151 5 -227 -16
l-25 -8 19 30 c66 100 221 216 349 261 40 13 134 38 210 53 77 16 141 31 145
34 9 9 48 7 79 -5z m773 -1361 c0 -51 -11 -59 -44 -35 -16 12 -16 18 -6 58 19
75 20 77 35 49 8 -14 14 -46 15 -72z"/>
<path d="M1825 2559 c-50 -17 -81 -37 -72 -45 1 -1 27 4 57 12 81 21 85 20 61
-20 -13 -21 -21 -50 -21 -79 l0 -46 103 -24 c73 -17 106 -21 116 -13 10 7 16
6 26 -7 11 -15 14 -15 24 -3 7 8 15 30 18 50 3 20 9 39 13 41 4 3 22 -17 39
-43 17 -26 31 -40 31 -31 0 55 -85 166 -154 201 -61 31 -164 34 -241 7z m144
-53 c14 -16 5 -42 -16 -50 -29 -11 -58 35 -36 57 11 12 40 8 52 -7z"/>
<path d="M2853 2500 c-98 -20 -191 -101 -218 -190 -5 -17 6 -8 36 30 l44 55 7
-49 c10 -73 15 -76 143 -65 161 14 155 12 155 64 0 24 -5 56 -10 71 -6 15 -8
29 -5 32 3 3 30 -5 61 -17 30 -13 57 -21 60 -18 11 11 -40 46 -94 66 -72 25
-125 32 -179 21z m-8 -60 c3 -6 3 -19 0 -30 -8 -24 -53 -28 -61 -5 -12 31 44
63 61 35z"/>
<path d="M2232 1943 c8 -47 157 -84 260 -65 60 11 88 29 88 56 0 20 -5 20 -35
0 -21 -14 -42 -15 -133 -9 -59 4 -122 13 -141 21 -42 18 -43 18 -39 -3z"/>
<path d="M1970 1805 c0 -34 75 -148 131 -199 64 -58 164 -113 219 -121 27 -4
30 -3 15 4 -18 9 -17 10 8 10 16 1 26 -4 25 -11 -4 -20 85 -21 150 -3 109 32
195 92 273 192 22 28 32 64 22 74 -17 17 -224 23 -336 9 -99 -12 -107 -11
-169 9 -55 18 -261 51 -320 51 -10 0 -18 -7 -18 -15z m487 -85 c78 0 133 -13
133 -32 0 -21 -298 -2 -405 26 -46 12 -48 14 -27 23 16 6 58 5 120 -4 54 -7
134 -12 179 -13z m-27 -230 c-20 -13 -53 -13 -45 0 3 6 18 10 33 10 21 0 24
-2 12 -10z"/>
<path d="M2160 1476 c0 -2 8 -10 18 -17 15 -13 16 -12 3 4 -13 16 -21 21 -21
13z"/>
<path d="M2645 1471 c-8 -14 -111 -62 -165 -78 l-45 -13 45 5 c50 6 140 48
166 77 10 10 14 18 11 18 -3 0 -8 -4 -12 -9z"/>
<path d="M2200 1446 c0 -3 9 -10 20 -16 11 -6 20 -8 20 -6 0 3 -9 10 -20 16
-11 6 -20 8 -20 6z"/>
</g>
</svg>
